<svg xmlns="http://www.w3.org/2000/svg" xmlns:xlink="http://www.w3.org/1999/xlink" viewBox="0 0 200 200">
  <defs>
    <style>
      .cls-1 {
        clip-path: url(#clip-Artboard_11);
      }

      .cls-2 {
        fill: #dff2fd;
      }

      .cls-3 {
        fill: #fff;
      }
    </style>
    <clipPath id="clip-Artboard_11">
      <rect width="200" height="200"/>
    </clipPath>
  </defs>
  <g id="Artboard_11" data-name="Artboard 11" class="cls-1">
    <rect class="cls-3" width="200" height="200"/>
    <g id="Layer_1" data-name="Layer 1" transform="translate(-880)">
      <g id="label">
        <path id="Path_5" data-name="Path 5" class="cls-2" d="M1038.176,200H921.828A41.878,41.878,0,0,1,880,158.174V41.824A41.875,41.875,0,0,1,921.828,0h116.348A41.871,41.871,0,0,1,1080,41.824v116.35A41.874,41.874,0,0,1,1038.176,200Z"/>
      </g>
    </g>
    <g id="H_og_pil" data-name="H og pil" transform="translate(-880)">
      <g id="Group_2" data-name="Group 2">
        <path id="Path_6" data-name="Path 6" d="M973.967,97.919a1.5,1.5,0,0,1-1.495-1.5V50.381H963V93.609a1.5,1.5,0,0,1-1.5,1.5H931.76a1.5,1.5,0,0,1-1.5-1.5V50.381h-9.475V96.423a1.5,1.5,0,1,1-2.991,0V48.885a1.5,1.5,0,0,1,1.5-1.5H931.76a1.5,1.5,0,0,1,1.495,1.5V92.113h26.751V48.885a1.5,1.5,0,0,1,1.495-1.5h12.466a1.5,1.5,0,0,1,1.5,1.5V96.423a1.5,1.5,0,0,1-1.5,1.5Z"/>
        <path id="Path_7" data-name="Path 7" d="M973.967,154.056H961.5a1.5,1.5,0,0,1-1.495-1.495V107.569H933.255v44.992a1.5,1.5,0,0,1-1.495,1.495H919.294a1.5,1.5,0,0,1-1.5-1.495V102.678a1.5,1.5,0,1,1,2.991,0v48.387h9.475v-44.99a1.5,1.5,0,0,1,1.5-1.5H961.5a1.5,1.5,0,0,1,1.5,1.5v44.99h9.475V102.678a1.5,1.5,0,1,1,2.991,0v49.883a1.5,1.5,0,0,1-1.5,1.495Z"/>
        <path id="Path_8" data-name="Path 8" d="M1020.138,79.159a1.485,1.485,0,0,1-1.058-.439L990.3,49.941a1.495,1.495,0,0,1,1.058-2.552h25.681a1.5,1.5,0,0,1,0,2.991H994.969l25.169,25.169,25.167-25.169h-21.961a1.5,1.5,0,1,1,0-2.991h25.571a1.495,1.495,0,0,1,1.057,2.552L1021.194,78.72a1.485,1.485,0,0,1-1.056.439Z"/>
      </g>
    </g>
  </g>
</svg>
