<svg xmlns="http://www.w3.org/2000/svg" viewBox="0 0 200 200"><title>Artboard 12</title><g id="Layer_1" data-name="Layer 1"><g id="label"><path d="M158.18,200H41.83A41.88,41.88,0,0,1,0,158.17V41.82A41.88,41.88,0,0,1,41.83,0H158.18A41.87,41.87,0,0,1,200,41.82V158.17A41.88,41.88,0,0,1,158.18,200Z" fill="#9c9c9b"/></g></g><g id="H_og_pil" data-name="H og pil"><path d="M94,97.92a1.5,1.5,0,0,1-1.5-1.5v-46H83V93.61a1.5,1.5,0,0,1-1.5,1.49H51.76a1.5,1.5,0,0,1-1.5-1.49V50.38H40.79v46a1.5,1.5,0,1,1-3,0V48.89a1.5,1.5,0,0,1,1.49-1.5H51.76a1.49,1.49,0,0,1,1.49,1.5V92.11H80V48.89a1.49,1.49,0,0,1,1.49-1.5H94a1.5,1.5,0,0,1,1.49,1.5V96.42A1.5,1.5,0,0,1,94,97.92Z" fill="#d3202c"/><path d="M94,154.06H81.5a1.49,1.49,0,0,1-1.49-1.5v-45H53.25v45a1.49,1.49,0,0,1-1.49,1.5H39.29a1.5,1.5,0,0,1-1.49-1.5V102.68a1.5,1.5,0,1,1,3,0v48.39h9.47v-45a1.5,1.5,0,0,1,1.5-1.49H81.5a1.5,1.5,0,0,1,1.5,1.49v45h9.47V102.68a1.5,1.5,0,1,1,3,0v49.88a1.5,1.5,0,0,1-1.49,1.5Z" fill="#d3202c"/><path d="M140.14,79.16a1.49,1.49,0,0,1-1.06-.44L110.3,49.94a1.5,1.5,0,0,1,1.06-2.55H137a1.5,1.5,0,0,1,0,3H115l25.17,25.17L165.3,50.38h-22a1.5,1.5,0,0,1,0-3h25.57A1.49,1.49,0,0,1,170,49.94L141.19,78.72a1.49,1.49,0,0,1-1.05.44Z" fill="#fff"/></g></svg>
