<?xml version="1.0" standalone="no"?>
<!DOCTYPE svg PUBLIC "-//W3C//DTD SVG 20010904//EN"
 "http://www.w3.org/TR/2001/REC-SVG-20010904/DTD/svg10.dtd">
<svg version="1.0" xmlns="http://www.w3.org/2000/svg"
 width="200.000000pt" height="200.000000pt" viewBox="0 0 200.000000 200.000000"
 preserveAspectRatio="xMidYMid meet">
<metadata>
Created by potrace 1.11, written by Peter Selinger 2001-2013
</metadata>
<g transform="translate(0.000000,200.000000) scale(0.100000,-0.100000)"
fill="#000000" stroke="none">
<path d="M376 1514 c-8 -20 -8 -458 0 -478 3 -9 12 -16 20 -16 12 0 14 41 14
235 l0 235 45 0 45 0 0 -220 0 -220 165 0 165 0 0 220 0 220 45 0 45 0 2 -232
c3 -199 5 -233 18 -233 13 0 15 34 15 250 l0 250 -75 0 -75 0 -3 -222 -2 -223
-130 0 -130 0 0 209 c0 115 -3 216 -6 225 -5 13 -22 16 -79 16 -57 0 -74 -3
-79 -16z"/>
<path d="M1100 1513 c0 -22 279 -303 301 -303 21 0 313 296 304 309 -4 7 -57
11 -146 11 -132 0 -139 -1 -139 -20 0 -19 7 -20 112 -20 l113 0 -122 -122
-123 -123 -120 120 -120 120 112 5 c92 4 113 8 113 20 0 13 -24 15 -142 18
-132 2 -143 1 -143 -15z"/>
<path d="M376 975 c-9 -25 -7 -488 3 -503 5 -9 29 -12 82 -10 l74 3 3 228 2
227 130 0 130 0 0 -230 0 -231 78 3 77 3 0 260 c0 224 -2 260 -15 260 -13 0
-15 -35 -18 -247 l-2 -248 -45 0 -45 0 -2 233 -3 232 -160 0 -160 0 -3 -232
-2 -233 -45 0 -45 0 -2 247 c-2 172 -6 247 -14 250 -6 2 -14 -3 -18 -12z"/>
</g>
</svg>
